HIERARCHY
ROOT Hips
{
	OFFSET 0.000000 0.000000 0.000000 
	CHANNELS 6 Xposition Yposition Zposition Zrotation Yrotation Xrotation
	JOINT LeftUpLeg
	{
		OFFSET 1.363060 -1.794630 0.839290 
		CHANNELS 3 Zrotation Yrotation Xrotation
		JOINT LeftLeg
		{
			OFFSET 2.448110 -6.726130 0.000000 
			CHANNELS 3 Zrotation Yrotation Xrotation
			JOINT LeftFoot
			{
				OFFSET 2.562200 -7.039590 0.000000 
				CHANNELS 3 Zrotation Yrotation Xrotation
				JOINT LeftToeBase
				{
					OFFSET 0.157640 -0.433110 2.322550 
					CHANNELS 3 Zrotation Yrotation Xrotation
					End Site
					{
						OFFSET 0.000000 0.000000 0.000000 
					}
				}
			}
		}
	}
	JOINT RightUpLeg
	{
		OFFSET -1.305520 -1.794630 0.839290 
		CHANNELS 3 Zrotation Yrotation Xrotation
		JOINT RightLeg
		{
			OFFSET -2.542530 -6.985550 0.000000 
			CHANNELS 3 Zrotation Yrotation Xrotation
			JOINT RightFoot
			{
				OFFSET -2.568260 -7.056230 0.000000 
				CHANNELS 3 Zrotation Yrotation Xrotation
				JOINT RightToeBase
				{
					OFFSET -0.164730 -0.452590 2.363150 
					CHANNELS 3 Zrotation Yrotation Xrotation
					End Site
					{
						OFFSET 0.000000 0.000000 0.000000 
					}
				}
			}
		}
	}
	JOINT Spine
	{
		OFFSET 0.028270 2.035590 -0.193380 
		CHANNELS 3 Zrotation Yrotation Xrotation
		JOINT Spine1
		{
			OFFSET 0.056720 2.048850 -0.042750 
			CHANNELS 3 Zrotation Yrotation Xrotation
			JOINT Neck1
			{
				OFFSET -0.054170 1.746240 0.172020 
				CHANNELS 3 Zrotation Yrotation Xrotation
				JOINT Head
				{
					OFFSET 0.104070 1.761360 -0.123970 
					CHANNELS 3 Zrotation Yrotation Xrotation
					End Site
					{
						OFFSET 0.000000 0.000000 0.000000 
					}
				}
			}
			JOINT LeftArm
			{
				OFFSET 3.362410 1.200890 -0.311210 
				CHANNELS 3 Zrotation Yrotation Xrotation
				JOINT LeftForeArm
				{
					OFFSET 4.983000 -0.000000 -0.000000 
					CHANNELS 3 Zrotation Yrotation Xrotation
					JOINT LeftHand
					{
						OFFSET 3.483560 -0.000000 -0.000000 
						CHANNELS 3 Zrotation Yrotation Xrotation
						JOINT LeftHandIndex1
						{
							OFFSET 0.715260 -0.000000 -0.000000 
							CHANNELS 3 Zrotation Yrotation Xrotation
							End Site
							{
								OFFSET 0.000000 0.000000 0.000000 
							}
						}
					}
				}
			}
			JOINT RightArm
			{
				OFFSET -3.136600 1.374050 -0.404650 
				CHANNELS 3 Zrotation Yrotation Xrotation
				JOINT RightForeArm
				{
					OFFSET -5.241900 -0.000000 -0.000000 
					CHANNELS 3 Zrotation Yrotation Xrotation
					JOINT RightHand
					{
						OFFSET -3.444170 -0.000000 -0.000000 
						CHANNELS 3 Zrotation Yrotation Xrotation
						JOINT RightHandIndex1
						{
							OFFSET -0.622530 -0.000000 -0.000000 
							CHANNELS 3 Zrotation Yrotation Xrotation
							End Site
							{
								OFFSET 0.000000 0.000000 0.000000 
							}
						}
					}
				}
			}
		}
	}
}
MOTION
Frames: 7
Frame Time: 0.041667
3.490438 18.182262 2.563902 16.403158 -65.084945 -6.910004 -18.027026 -4.137053 -22.905175 3.268007 10.126492 34.531519 -2.325869 10.098065 -2.952043 0.457400 -4.338600 -12.031400 14.531499 31.219925 -13.822288 -3.191092 -7.831876 29.998414 0.858806 -4.793109 -6.802043 -0.047900 -1.411800 3.882700 10.749788 -3.697818 18.613977 2.099257 -0.409899 -8.109374 7.211625 -18.083711 32.817226 1.418600 -8.751000 10.548200 -84.423634 -8.889513 62.122538 123.690899 -56.638185 -90.331237 0.673608 -0.613956 -59.339389 -7.125000 0.000000 0.000000 64.155537 20.075149 12.712597 -17.527193 21.858075 -4.485906 2.000916 -1.930135 30.788445 7.125000 0.000000 0.000000 
3.467717 18.163505 2.584593 16.384122 -65.314519 -6.870701 -17.706626 -5.033193 -22.689392 2.973709 9.779158 33.345532 -2.230500 9.702983 -3.268792 0.265500 -3.314800 -9.156300 14.588586 31.204914 -13.931056 -3.237758 -7.897410 30.233020 0.796158 -4.601972 -6.879009 -0.040600 -1.300200 3.575200 11.271381 -3.871532 18.628231 2.157362 -0.465027 -8.091352 7.191467 -17.926672 32.586837 1.491400 -8.705400 10.514100 -84.752611 -8.882054 62.161779 123.392828 -56.750973 -90.082910 0.667651 -0.626447 -59.587640 -7.125000 0.000000 0.000000 64.044863 20.494514 12.548757 -17.442594 21.724648 -4.448085 2.062557 -1.909486 30.835981 7.125000 0.000000 0.000000 
3.442192 18.163021 2.609248 15.921502 -65.587012 -6.404508 -17.359267 -5.717366 -22.773683 2.798300 9.576943 32.626576 -2.240757 9.740697 -3.639161 0.261900 -3.292600 -9.094400 14.848473 31.135492 -13.876394 -3.228766 -7.878528 30.192426 0.761527 -4.466088 -6.782047 -0.029000 -1.099500 3.022600 12.237939 -4.198966 18.496568 2.250017 -0.580452 -8.057626 6.997876 -17.544893 32.458242 1.565800 -8.586700 10.508500 -85.400572 -8.798939 61.715228 123.071457 -56.863967 -89.828002 0.670986 -0.633133 -59.399641 -7.125000 0.000000 0.000000 63.808560 21.030697 12.503484 -17.289025 21.495807 -4.380592 2.133115 -1.881687 31.095611 7.125000 0.000000 0.000000 
3.419664 18.164278 2.633612 15.772613 -65.802069 -6.256811 -17.175739 -6.427645 -22.821114 2.623515 9.347474 31.840662 -2.347576 10.105186 -3.697731 0.379000 -3.954000 -10.947200 14.930607 31.047513 -13.872378 -3.226229 -7.867970 30.174074 0.754994 -4.406180 -6.586421 -0.009700 -0.634900 1.744700 12.336326 -4.237249 18.693064 2.192297 -0.594169 -8.028321 6.994638 -17.507658 32.223366 1.557500 -8.553400 10.454500 -85.498369 -8.921395 61.767505 122.757380 -56.960173 -89.596091 0.677965 -0.633389 -59.172264 -7.125000 0.000000 0.000000 63.892435 21.479579 11.570837 -17.176642 21.312763 -4.327623 2.135366 -1.925517 31.039253 7.125000 0.000000 0.000000 
3.399070 18.161184 2.654110 15.789219 -66.171687 -6.247448 -16.923596 -7.248544 -22.959507 2.469736 9.148033 31.180762 -2.349380 10.110977 -4.057113 0.335900 -3.724700 -10.303300 14.967777 31.170474 -13.852299 -3.207508 -7.816674 30.053480 0.753512 -4.339065 -6.312820 -0.003500 -0.383700 1.054200 11.195873 -3.673677 19.314542 1.816674 -0.377514 -8.024322 7.063245 -18.104655 31.733126 1.332900 -8.720100 10.258000 -84.611934 -9.351942 62.891397 122.444588 -57.041986 -89.381153 0.681257 -0.631558 -59.230553 -7.125000 0.000000 0.000000 64.519331 21.731563 9.204336 -17.110512 21.187786 -4.287792 2.076656 -2.062392 30.898058 7.125000 0.000000 0.000000 
3.372482 18.162054 2.670740 15.603565 -66.725843 -5.869152 -16.576679 -7.905140 -23.242798 2.316412 8.961251 30.522254 -2.360465 10.155395 -4.344569 0.321700 -3.645600 -10.081800 15.079406 31.496150 -13.867838 -3.181773 -7.767380 29.913639 0.734154 -4.240332 -6.164574 -0.001800 -0.271900 0.747100 12.741885 -4.099238 18.860816 2.193178 -0.494410 -7.928480 7.208630 -17.482347 31.566205 1.659700 -8.518100 10.277600 -85.572765 -9.093151 62.004811 122.224455 -57.120308 -89.209668 0.686814 -0.638864 -58.823973 -7.125000 0.000000 0.000000 63.965778 22.292306 9.830115 -16.890656 20.873845 -4.217154 2.071865 -2.146986 30.316752 7.125000 0.000000 0.000000 
3.344540 18.164181 2.688433 15.332643 -67.205855 -5.499906 -16.217920 -8.563181 -23.442728 2.167420 8.764795 29.840071 -2.416734 10.338729 -4.411555 0.330300 -3.693600 -10.216200 15.263828 31.801875 -13.759906 -3.157803 -7.713220 29.777763 0.715888 -4.159110 -6.110641 -0.002300 -0.308700 0.848300 13.502461 -4.126159 18.732814 2.351822 -0.461591 -7.860652 7.070345 -17.292304 31.408357 1.702600 -8.469800 10.247600 -86.014434 -9.107123 62.010173 121.886212 -57.223934 -88.965503 0.694444 -0.643165 -58.529644 -7.125000 0.000000 0.000000 63.590317 22.566323 9.833336 -16.739098 20.673583 -4.165315 2.094026 -2.181465 29.491874 7.125000 0.000000 0.000000 
